<svg id="visual" viewBox="0 0 900 450" width="900" height="450" xmlns="http://www.w3.org/2000/svg" xmlns:xlink="http://www.w3.org/1999/xlink" version="1.1"><rect x="0" y="0" width="900" height="450" fill="#000000"></rect><defs><linearGradient id="grad1_0" x1="50%" y1="100%" x2="100%" y2="0%"><stop offset="10%" stop-color="#000000" stop-opacity="1"></stop><stop offset="90%" stop-color="#000000" stop-opacity="1"></stop></linearGradient></defs><defs><linearGradient id="grad2_0" x1="0%" y1="100%" x2="50%" y2="0%"><stop offset="10%" stop-color="#000000" stop-opacity="1"></stop><stop offset="90%" stop-color="#000000" stop-opacity="1"></stop></linearGradient></defs><g transform="translate(900, 450)"><path d="M-270 0C-271.4 -30.6 -272.8 -61.2 -256.8 -83.4C-240.8 -105.6 -207.4 -119.4 -184.5 -134C-161.5 -148.6 -149.1 -164.1 -134.6 -185.3C-120.1 -206.4 -103.4 -233.2 -80.7 -248.2C-57.9 -263.3 -28.9 -266.6 0 -270L0 0Z" fill="#1ed760"></path></g><g transform="translate(0, 0)"><path d="M270 0C268.5 29.2 267 58.4 256.8 83.4C246.6 108.4 227.8 129.2 211.2 153.4C194.6 177.6 180.2 205.1 156.9 216C133.7 226.9 101.5 221.1 73.9 227.3C46.2 233.5 23.1 251.8 0 270L0 0Z" fill="#1ed760"></path></g></svg>