<svg id="visual" viewBox="0 0 900 450" width="900" height="450" xmlns="http://www.w3.org/2000/svg" xmlns:xlink="http://www.w3.org/1999/xlink" version="1.1"><rect x="0" y="0" width="900" height="450" fill="#000000"></rect><g transform="translate(35.73392817257894 438.6816581581061)"><path d="M144.6 -204.7C194.4 -162.9 246.5 -129.9 270 -82C293.6 -34 288.5 29 282.8 105.9C277.1 182.7 270.8 273.4 223.6 304.2C176.3 335 88.2 306 13.2 287.8C-61.7 269.6 -123.4 262.2 -193.3 238.8C-263.2 215.3 -341.3 175.8 -356.3 118.4C-371.2 61.1 -323 -14.1 -275.2 -67.2C-227.3 -120.2 -179.8 -151.1 -134 -194.2C-88.2 -237.4 -44.1 -292.7 1.7 -295C47.4 -297.3 94.8 -246.5 144.6 -204.7" fill="#1ed760"></path></g></svg>