<svg id="visual" viewBox="0 0 900 450" width="900" height="450" xmlns="http://www.w3.org/2000/svg" xmlns:xlink="http://www.w3.org/1999/xlink" version="1.1"><rect x="0" y="0" width="900" height="450" fill="#000000"></rect><path d="M0 305L21.5 305.5C43 306 86 307 128.8 315C171.7 323 214.3 338 257.2 337.8C300 337.7 343 322.3 385.8 318.8C428.7 315.3 471.3 323.7 514.2 326C557 328.3 600 324.7 642.8 321.7C685.7 318.7 728.3 316.3 771.2 319.7C814 323 857 332 878.5 336.5L900 341L900 451L878.5 451C857 451 814 451 771.2 451C728.3 451 685.7 451 642.8 451C600 451 557 451 514.2 451C471.3 451 428.7 451 385.8 451C343 451 300 451 257.2 451C214.3 451 171.7 451 128.8 451C86 451 43 451 21.5 451L0 451Z" fill="#169c46"></path><path d="M0 345L21.5 348.5C43 352 86 359 128.8 358.8C171.7 358.7 214.3 351.3 257.2 350.5C300 349.7 343 355.3 385.8 355.2C428.7 355 471.3 349 514.2 346.5C557 344 600 345 642.8 342.3C685.7 339.7 728.3 333.3 771.2 330.7C814 328 857 329 878.5 329.5L900 330L900 451L878.5 451C857 451 814 451 771.2 451C728.3 451 685.7 451 642.8 451C600 451 557 451 514.2 451C471.3 451 428.7 451 385.8 451C343 451 300 451 257.2 451C214.3 451 171.7 451 128.8 451C86 451 43 451 21.5 451L0 451Z" fill="#18aa4c"></path><path d="M0 389L21.5 387.5C43 386 86 383 128.8 380.7C171.7 378.3 214.3 376.7 257.2 375.3C300 374 343 373 385.8 370C428.7 367 471.3 362 514.2 362.3C557 362.7 600 368.3 642.8 370C685.7 371.7 728.3 369.3 771.2 368.3C814 367.3 857 367.7 878.5 367.8L900 368L900 451L878.5 451C857 451 814 451 771.2 451C728.3 451 685.7 451 642.8 451C600 451 557 451 514.2 451C471.3 451 428.7 451 385.8 451C343 451 300 451 257.2 451C214.3 451 171.7 451 128.8 451C86 451 43 451 21.5 451L0 451Z" fill="#1ab953"></path><path d="M0 382L21.5 381.3C43 380.7 86 379.3 128.8 384.8C171.7 390.3 214.3 402.7 257.2 403.3C300 404 343 393 385.8 390.7C428.7 388.3 471.3 394.7 514.2 394.3C557 394 600 387 642.8 386C685.7 385 728.3 390 771.2 392.8C814 395.7 857 396.3 878.5 396.7L900 397L900 451L878.5 451C857 451 814 451 771.2 451C728.3 451 685.7 451 642.8 451C600 451 557 451 514.2 451C471.3 451 428.7 451 385.8 451C343 451 300 451 257.2 451C214.3 451 171.7 451 128.8 451C86 451 43 451 21.5 451L0 451Z" fill="#1cc859"></path><path d="M0 411L21.5 411.3C43 411.7 86 412.3 128.8 414.3C171.7 416.3 214.3 419.7 257.2 421.7C300 423.7 343 424.3 385.8 422.7C428.7 421 471.3 417 514.2 415.3C557 413.7 600 414.3 642.8 414C685.7 413.7 728.3 412.3 771.2 412.8C814 413.3 857 415.7 878.5 416.8L900 418L900 451L878.5 451C857 451 814 451 771.2 451C728.3 451 685.7 451 642.8 451C600 451 557 451 514.2 451C471.3 451 428.7 451 385.8 451C343 451 300 451 257.2 451C214.3 451 171.7 451 128.8 451C86 451 43 451 21.5 451L0 451Z" fill="#1ed760"></path></svg>