<svg id="visual" viewBox="0 0 900 450" width="900" height="450" xmlns="http://www.w3.org/2000/svg" xmlns:xlink="http://www.w3.org/1999/xlink" version="1.1"><rect x="0" y="0" width="900" height="450" fill="#000000"></rect><g transform="translate(464.2553842615494 246.18095372454613)"><path d="M60.2 -112.4C82.8 -91.1 109.4 -84.8 125.4 -68.6C141.3 -52.3 146.7 -26.2 150.1 2C153.6 30.2 155.2 60.3 140.6 79C126 97.6 95.3 104.6 69.1 117.1C43 129.5 21.5 147.2 -1.1 149.1C-23.7 151 -47.3 137 -79.8 128.2C-112.3 119.5 -153.6 116 -170.6 95.5C-187.6 75 -180.3 37.5 -172.9 4.3C-165.6 -29 -158.1 -58 -147 -88.6C-135.8 -119.2 -120.9 -151.4 -95.8 -171.2C-70.7 -191.1 -35.3 -198.5 -8.3 -184.2C18.8 -169.8 37.5 -133.6 60.2 -112.4" fill="#1ed760"></path></g></svg>