<svg id="visual" viewBox="0 0 900 450" width="900" height="450" xmlns="http://www.w3.org/2000/svg" xmlns:xlink="http://www.w3.org/1999/xlink" version="1.1"><rect x="0" y="0" width="900" height="450" fill="#000000"></rect><path d="M0 234L21.5 244.3C43 254.7 86 275.3 128.8 273C171.7 270.7 214.3 245.3 257.2 245.5C300 245.7 343 271.3 385.8 277.7C428.7 284 471.3 271 514.2 260.5C557 250 600 242 642.8 237.8C685.7 233.7 728.3 233.3 771.2 240.7C814 248 857 263 878.5 270.5L900 278L900 451L878.5 451C857 451 814 451 771.2 451C728.3 451 685.7 451 642.8 451C600 451 557 451 514.2 451C471.3 451 428.7 451 385.8 451C343 451 300 451 257.2 451C214.3 451 171.7 451 128.8 451C86 451 43 451 21.5 451L0 451Z" fill="#1ed760"></path><path d="M0 287L21.5 292.2C43 297.3 86 307.7 128.8 313.2C171.7 318.7 214.3 319.3 257.2 312.2C300 305 343 290 385.8 283.5C428.7 277 471.3 279 514.2 286C557 293 600 305 642.8 311.2C685.7 317.3 728.3 317.7 771.2 309.2C814 300.7 857 283.3 878.5 274.7L900 266L900 451L878.5 451C857 451 814 451 771.2 451C728.3 451 685.7 451 642.8 451C600 451 557 451 514.2 451C471.3 451 428.7 451 385.8 451C343 451 300 451 257.2 451C214.3 451 171.7 451 128.8 451C86 451 43 451 21.5 451L0 451Z" fill="#1bc357"></path><path d="M0 318L21.5 320.2C43 322.3 86 326.7 128.8 337.8C171.7 349 214.3 367 257.2 364.7C300 362.3 343 339.7 385.8 335.7C428.7 331.7 471.3 346.3 514.2 346.5C557 346.7 600 332.3 642.8 325.7C685.7 319 728.3 320 771.2 323.8C814 327.7 857 334.3 878.5 337.7L900 341L900 451L878.5 451C857 451 814 451 771.2 451C728.3 451 685.7 451 642.8 451C600 451 557 451 514.2 451C471.3 451 428.7 451 385.8 451C343 451 300 451 257.2 451C214.3 451 171.7 451 128.8 451C86 451 43 451 21.5 451L0 451Z" fill="#19af4f"></path><path d="M0 407L21.5 404.3C43 401.7 86 396.3 128.8 393.7C171.7 391 214.3 391 257.2 395.3C300 399.7 343 408.3 385.8 412.3C428.7 416.3 471.3 415.7 514.2 416.5C557 417.3 600 419.7 642.8 420.5C685.7 421.3 728.3 420.7 771.2 412.5C814 404.3 857 388.7 878.5 380.8L900 373L900 451L878.5 451C857 451 814 451 771.2 451C728.3 451 685.7 451 642.8 451C600 451 557 451 514.2 451C471.3 451 428.7 451 385.8 451C343 451 300 451 257.2 451C214.3 451 171.7 451 128.8 451C86 451 43 451 21.5 451L0 451Z" fill="#169c46"></path></svg>